<svg width="64" height="64" viewBox="0 0 64 64" fill="none" xmlns="http://www.w3.org/2000/svg">
<g clip-path="url(#clip0_131_11)">
<path d="M32 20C32.6638 20 33.2 20.6703 33.2 21.5V24.5H37.7C39.1925 24.5 40.4 26.0094 40.4 27.875V40.625C40.4 42.4906 39.1925 44 37.7 44H26.3C24.8075 44 23.6 42.4906 23.6 40.625V27.875C23.6 26.0094 24.8075 24.5 26.3 24.5H30.8V21.5C30.8 20.6703 31.3363 20 32 20ZM27.8 38C27.47 38 27.2 38.3375 27.2 38.75C27.2 39.1625 27.47 39.5 27.8 39.5H29C29.33 39.5 29.6 39.1625 29.6 38.75C29.6 38.3375 29.33 38 29 38H27.8ZM31.4 38C31.07 38 30.8 38.3375 30.8 38.75C30.8 39.1625 31.07 39.5 31.4 39.5H32.6C32.93 39.5 33.2 39.1625 33.2 38.75C33.2 38.3375 32.93 38 32.6 38H31.4ZM35 38C34.67 38 34.4 38.3375 34.4 38.75C34.4 39.1625 34.67 39.5 35 39.5H36.2C36.53 39.5 36.8 39.1625 36.8 38.75C36.8 38.3375 36.53 38 36.2 38H35ZM29.9 32C29.9 31.5027 29.742 31.0258 29.4607 30.6742C29.1794 30.3225 28.7978 30.125 28.4 30.125C28.0022 30.125 27.6206 30.3225 27.3393 30.6742C27.058 31.0258 26.9 31.5027 26.9 32C26.9 32.4973 27.058 32.9742 27.3393 33.3258C27.6206 33.6775 28.0022 33.875 28.4 33.875C28.7978 33.875 29.1794 33.6775 29.4607 33.3258C29.742 32.9742 29.9 32.4973 29.9 32ZM35.6 33.875C35.9978 33.875 36.3794 33.6775 36.6607 33.3258C36.942 32.9742 37.1 32.4973 37.1 32C37.1 31.5027 36.942 31.0258 36.6607 30.6742C36.3794 30.3225 35.9978 30.125 35.6 30.125C35.2022 30.125 34.8206 30.3225 34.5393 30.6742C34.258 31.0258 34.1 31.5027 34.1 32C34.1 32.4973 34.258 32.9742 34.5393 33.3258C34.8206 33.6775 35.2022 33.875 35.6 33.875ZM21.8 30.5H22.4V39.5H21.8C20.8063 39.5 20 38.4922 20 37.25V32.75C20 31.5078 20.8063 30.5 21.8 30.5ZM42.2 30.5C43.1938 30.5 44 31.5078 44 32.75V37.25C44 38.4922 43.1938 39.5 42.2 39.5H41.6V30.5H42.2Z" fill="#366FA0"/>
</g>
<mask id="path-2-inside-1_131_11" fill="white">
<path fill-rule="evenodd" clip-rule="evenodd" d="M44 4L44 19.551C44.248 19.551 44.449 19.752 44.449 20C44.449 20 44.449 20 44.449 20H60C60 17.8988 59.5861 15.8183 58.7821 13.8771C57.978 11.9359 56.7994 10.172 55.3137 8.68629C53.828 7.20055 52.0641 6.022 50.1229 5.21793C48.1817 4.41385 46.1011 4 44 4Z"/>
</mask>
<path fill-rule="evenodd" clip-rule="evenodd" d="M44 4L44 19.551C44.248 19.551 44.449 19.752 44.449 20C44.449 20 44.449 20 44.449 20H60C60 17.8988 59.5861 15.8183 58.7821 13.8771C57.978 11.9359 56.7994 10.172 55.3137 8.68629C53.828 7.20055 52.0641 6.022 50.1229 5.21793C48.1817 4.41385 46.1011 4 44 4Z" fill="#43A1FF"/>
<path d="M44 4V3H43L43 4L44 4ZM44 19.551L43 19.551L43 20.551H44V19.551ZM44.449 20H43.449V21H44.449V20ZM60 20V21H61V20H60ZM55.3137 8.68629L54.6066 9.3934L54.6066 9.3934L55.3137 8.68629ZM50.1229 5.21793L49.7402 6.14181L49.7402 6.14181L50.1229 5.21793ZM43 4L43 19.551L45 19.551L45 4L43 4ZM45.449 20C45.449 19.1997 44.8003 18.551 44 18.551V20.551C43.6957 20.551 43.449 20.3043 43.449 20H45.449ZM45.449 20C45.449 20 45.449 20 45.449 20C45.449 20 45.449 20 45.449 20C45.449 20 45.449 20 45.449 20C45.449 20 45.449 20 45.449 20C45.449 20 45.449 20 45.449 20C45.449 20 45.449 20 45.449 20C45.449 20 45.449 20 45.449 20C45.449 20 45.449 20 45.449 20C45.449 20 45.449 20 45.449 20C45.449 20 45.449 20 45.449 20C45.449 20 45.449 20 45.449 20C45.449 20 45.449 20 45.449 20C45.449 20 45.449 20 45.449 20C45.449 20 45.449 20 45.449 20C45.449 20 45.449 20 45.449 20C45.449 20 45.449 20 45.449 20C45.449 20 45.449 20 45.449 20C45.449 20 45.449 20 45.449 20C45.449 20 45.449 20 45.449 20C45.449 20 45.449 20 45.449 20C45.449 20 45.449 20 45.449 20C45.449 20 45.449 20 45.449 20C45.449 20 45.449 20 45.449 20C45.449 20 45.449 20 45.449 20C45.449 20 45.449 20 45.449 20C45.449 20 45.449 20 45.449 20C45.449 20 45.449 20 45.449 20C45.449 20 45.449 20 45.449 20C45.449 20 45.449 20 45.449 20C45.449 20 45.449 20 45.449 20C45.449 20 45.449 20 45.449 20C45.449 20 45.449 20 45.449 20C45.449 20 45.449 20 45.449 20C45.449 20 45.449 20 45.449 20C45.449 20 45.449 20 45.449 20C45.449 20 45.449 20 45.449 20C45.449 20 45.449 20 45.449 20C45.449 20 45.449 20 45.449 20C45.449 20 45.449 20 45.449 20C45.449 20 45.449 20 45.449 20C45.449 20 45.449 20 45.449 20C45.449 20 45.449 20 45.449 20C45.449 20 45.449 20 45.449 20C45.449 20 45.449 20 45.449 20C45.449 20 45.449 20 45.449 20C45.449 20 45.449 20 45.449 20C45.449 20 45.449 20 45.449 20C45.449 20 45.449 20 45.449 20C45.449 20 45.449 20 45.449 20C45.449 20 45.449 20 45.449 20C45.449 20 45.449 20 45.449 20C45.449 20 45.449 20 45.449 20C45.449 20 45.449 20 45.449 20C45.449 20 45.449 20 45.449 20C45.449 20 45.449 20 45.449 20C45.449 20 45.449 20 45.449 20C45.449 20 45.449 20 45.449 20C45.449 20 45.449 20 45.449 20C45.449 20 45.449 20 45.449 20C45.449 20 45.449 20 45.449 20C45.449 20 45.449 20 45.449 20C45.449 20 45.449 20 45.449 20C45.449 20 45.449 20 45.449 20C45.449 20 45.449 20 45.449 20C45.449 20 45.449 20 45.449 20C45.449 20 45.449 20 45.449 20C45.449 20 45.449 20 45.449 20C45.449 20 45.449 20 45.449 20C45.449 20 45.449 20 45.449 20C45.449 20 45.449 20 45.449 20C45.449 20 45.449 20 45.449 20C45.449 20 45.449 20 45.449 20C45.449 20 45.449 20 45.449 20C45.449 20 45.449 20 45.449 20C45.449 20 45.449 20 45.449 20C45.449 20 45.449 20 45.449 20C45.449 20 45.449 20 45.449 20C45.449 20 45.449 20 45.449 20C45.449 20 45.449 20 45.449 20C45.449 20 45.449 20 45.449 20C45.449 20 45.449 20 45.449 20C45.449 20 45.449 20 45.449 20C45.449 20 45.449 20 45.449 20C45.449 20 45.449 20 45.449 20C45.449 20 45.449 20 45.449 20C45.449 20 45.449 20 45.449 20C45.449 20 45.449 20 45.449 20C45.449 20 45.449 20 45.449 20C45.449 20 45.449 20 45.449 20C45.449 20 45.449 20 45.449 20C45.449 20 45.449 20 45.449 20C45.449 20 45.449 20 45.449 20C45.449 20 45.449 20 45.449 20C45.449 20 45.449 20 45.449 20C45.449 20 45.449 20 45.449 20C45.449 20 45.449 20 45.449 20C45.449 20 45.449 20 45.449 20C45.449 20 45.449 20 45.449 20C45.449 20 45.449 20 45.449 20C45.449 20 45.449 20 45.449 20C45.449 20 45.449 20 45.449 20C45.449 20 45.449 20 45.449 20C45.449 20 45.449 20 45.449 20C45.449 20 45.449 20 45.449 20C45.449 20 45.449 20 45.449 20C45.449 20 45.449 20 45.449 20C45.449 20 45.449 20 45.449 20C45.449 20 45.449 20 45.449 20C45.449 20 45.449 20 45.449 20C45.449 20 45.449 20 45.449 20C45.449 20 45.449 20 45.449 20C45.449 20 45.449 20 45.449 20C45.449 20 45.449 20 45.449 20C45.449 20 45.449 20 45.449 20C45.449 20 45.449 20 45.449 20C45.449 20 45.449 20 45.449 20C45.449 20 45.449 20 45.449 20C45.449 20 45.449 20 45.449 20C45.449 20 45.449 20 45.449 20C45.449 20 45.449 20 45.449 20C45.449 20 45.449 20 45.449 20C45.449 20 45.449 20 45.449 20C45.449 20 45.449 20 45.449 20C45.449 20 45.449 20 45.449 20C45.449 20 45.449 20 45.449 20C45.449 20 45.449 20 45.449 20C45.449 20 45.449 20 45.449 20C45.449 20 45.449 20 45.449 20C45.449 20 45.449 20 45.449 20C45.449 20 45.449 20 45.449 20C45.449 20 45.449 20 45.449 20C45.449 20 45.449 20 45.449 20C45.449 20 45.449 20 45.449 20C45.449 20 45.449 20 45.449 20C45.449 20 45.449 20 45.449 20C45.449 20 45.449 20 45.449 20C45.449 20 45.449 20 45.449 20C45.449 20 45.449 20 45.449 20C45.449 20 45.449 20 45.449 20C45.449 20 45.449 20 45.449 20C45.449 20 45.449 20 45.449 20C45.449 20 45.449 20 45.449 20C45.449 20 45.449 20 45.449 20C45.449 20 45.449 20 45.449 20C45.449 20 45.449 20 45.449 20C45.449 20 45.449 20 45.449 20C45.449 20 45.449 20 45.449 20C45.449 20 45.449 20 45.449 20C45.449 20 45.449 20 45.449 20C45.449 20 45.449 20 45.449 20C45.449 20 45.449 20 45.449 20C45.449 20 45.449 20 45.449 20C45.449 20 45.449 20 45.449 20C45.449 20 45.449 20 45.449 20C45.449 20 45.449 20 45.449 20C45.449 20 45.449 20 45.449 20C45.449 20 45.449 20 45.449 20C45.449 20 45.449 20 45.449 20C45.449 20 45.449 20 45.449 20C45.449 20 45.449 20 45.449 20C45.449 20 45.449 20 45.449 20C45.449 20 45.449 20 45.449 20C45.449 20 45.449 20 45.449 20C45.449 20 45.449 20 45.449 20C45.449 20 45.449 20 45.449 20C45.449 20 45.449 20 45.449 20C45.449 20 45.449 20 45.449 20C45.449 20 45.449 20 45.449 20C45.449 20 45.449 20 45.449 20C45.449 20 45.449 20 45.449 20C45.449 20 45.449 20 45.449 20C45.449 20 45.449 20 45.449 20C45.449 20 45.449 20 45.449 20C45.449 20 45.449 20 45.449 20C45.449 20 45.449 20 45.449 20C45.449 20 45.449 20 45.449 20C45.449 20 45.449 20 45.449 20C45.449 20 45.449 20 45.449 20C45.449 20 45.449 20 45.449 20C45.449 20 45.449 20 45.449 20C45.449 20 45.449 20 45.449 20C45.449 20 45.449 20 45.449 20C45.449 20 45.449 20 45.449 20C45.449 20 45.449 20 45.449 20C45.449 20 45.449 20 45.449 20C45.449 20 45.449 20 45.449 20C45.449 20 45.449 20 45.449 20C45.449 20 45.449 20 45.449 20C45.449 20 45.449 20 45.449 20C45.449 20 45.449 20 45.449 20C45.449 20 45.449 20 45.449 20C45.449 20 45.449 20 45.449 20C45.449 20 45.449 20 45.449 20C45.449 20 45.449 20 45.449 20C45.449 20 45.449 20 45.449 20C45.449 20 45.449 20 45.449 20C45.449 20 45.449 20 45.449 20C45.449 20 45.449 20 45.449 20C45.449 20 45.449 20 45.449 20C45.449 20 45.449 20 45.449 20C45.449 20 45.449 20 45.449 20C45.449 20 45.449 20 45.449 20C45.449 20 45.449 20 45.449 20C45.449 20 45.449 20 45.449 20C45.449 20 45.449 20 45.449 20C45.449 20 45.449 20 45.449 20C45.449 20 45.449 20 45.449 20C45.449 20 45.449 20 45.449 20C45.449 20 45.449 20 45.449 20C45.449 20 45.449 20 45.449 20C45.449 20 45.449 20 45.449 20C45.449 20 45.449 20 45.449 20C45.449 20 45.449 20 45.449 20C45.449 20 45.449 20 45.449 20C45.449 20 45.449 20 45.449 20C45.449 20 45.449 20 45.449 20C45.449 20 45.449 20 45.449 20C45.449 20 45.449 20 45.449 20C45.449 20 45.449 20 45.449 20C45.449 20 45.449 20 45.449 20C45.449 20 45.449 20 45.449 20C45.449 20 45.449 20 45.449 20C45.449 20 45.449 20 45.449 20C45.449 20 45.449 20 45.449 20C45.449 20 45.449 20 45.449 20C45.449 20 45.449 20 45.449 20C45.449 20 45.449 20 45.449 20C45.449 20 45.449 20 45.449 20C45.449 20 45.449 20 45.449 20C45.449 20 45.449 20 45.449 20C45.449 20 45.449 20 45.449 20C45.449 20 45.449 20 45.449 20C45.449 20 45.449 20 45.449 20C45.449 20 45.449 20 45.449 20C45.449 20 45.449 20 45.449 20C45.449 20 45.449 20 45.449 20C45.449 20 45.449 20 45.449 20C45.449 20 45.449 20 45.449 20C45.449 20 45.449 20 45.449 20C45.449 20 45.449 20 45.449 20C45.449 20 45.449 20 45.449 20C45.449 20 45.449 20 45.449 20C45.449 20 45.449 20 45.449 20C45.449 20 45.449 20 45.449 20C45.449 20 45.449 20 45.449 20C45.449 20 45.449 20 45.449 20C45.449 20 45.449 20 45.449 20C45.449 20 45.449 20 45.449 20C45.449 20 45.449 20 45.449 20C45.449 20 45.449 20 45.449 20C45.449 20 45.449 20 45.449 20C45.449 20 45.449 20 45.449 20C45.449 20 45.449 20 45.449 20C45.449 20 45.449 20 45.449 20C45.449 20 45.449 20 45.449 20C45.449 20 45.449 20 45.449 20C45.449 20 45.449 20 45.449 20C45.449 20 45.449 20 45.449 20C45.449 20 45.449 20 45.449 20C45.449 20 45.449 20 45.449 20C45.449 20 45.449 20 45.449 20C45.449 20 45.449 20 45.449 20C45.449 20 45.449 20 45.449 20C45.449 20 45.449 20 45.449 20C45.449 20 45.449 20 45.449 20C45.449 20 45.449 20 45.449 20C45.449 20 45.449 20 45.449 20C45.449 20 45.449 20 45.449 20C45.449 20 45.449 20 45.449 20C45.449 20 45.449 20 45.449 20C45.449 20 45.449 20 45.449 20C45.449 20 45.449 20 45.449 20C45.449 20 45.449 20 45.449 20C45.449 20 45.449 20 45.449 20C45.449 20 45.449 20 45.449 20C45.449 20 45.449 20 45.449 20C45.449 20 45.449 20 45.449 20C45.449 20 45.449 20 45.449 20C45.449 20 45.449 20 45.449 20C45.449 20 45.449 20 45.449 20C45.449 20 45.449 20 45.449 20C45.449 20 45.449 20 45.449 20C45.449 20 45.449 20 45.449 20C45.449 20 45.449 20 45.449 20C45.449 20 45.449 20 45.449 20C45.449 20 45.449 20 45.449 20C45.449 20 45.449 20 45.449 20C45.449 20 45.449 20 45.449 20C45.449 20 45.449 20 45.449 20C45.449 20 45.449 20 45.449 20C45.449 20 45.449 20 45.449 20C45.449 20 45.449 20 45.449 20C45.449 20 45.449 20 45.449 20C45.449 20 45.449 20 45.449 20C45.449 20 45.449 20 45.449 20C45.449 20 45.449 20 45.449 20C45.449 20 45.449 20 45.449 20C45.449 20 45.449 20 45.449 20C45.449 20 45.449 20 45.449 20C45.449 20 45.449 20 45.449 20C45.449 20 45.449 20 45.449 20C45.449 20 45.449 20 45.449 20C45.449 20 45.449 20 45.449 20C45.449 20 45.449 20 45.449 20C45.449 20 45.449 20 45.449 20C45.449 20 45.449 20 45.449 20C45.449 20 45.449 20 45.449 20C45.449 20 45.449 20 45.449 20C45.449 20 45.449 20 45.449 20C45.449 20 45.449 20 45.449 20C45.449 20 45.449 20 45.449 20C45.449 20 45.449 20 45.449 20C45.449 20 45.449 20 45.449 20C45.449 20 45.449 20 45.449 20C45.449 20 45.449 20 45.449 20C45.449 20 45.449 20 45.449 20C45.449 20 45.449 20 45.449 20C45.449 20 45.449 20 45.449 20C45.449 20 45.449 20 45.449 20C45.449 20 45.449 20 45.449 20C45.449 20 45.449 20 45.449 20C45.449 20 45.449 20 45.449 20C45.449 20 45.449 20 45.449 20C45.449 20 45.449 20 45.449 20C45.449 20 45.449 20 45.449 20C45.449 20 45.449 20 45.449 20C45.449 20 45.449 20 45.449 20C45.449 20 45.449 20 45.449 20C45.449 20 45.449 20 45.449 20C45.449 20 45.449 20 45.449 20C45.449 20 45.449 20 45.449 20C45.449 20 45.449 20 45.449 20C45.449 20 45.449 20 45.449 20C45.449 20 45.449 20 45.449 20C45.449 20 45.449 20 45.449 20C45.449 20 45.449 20 45.449 20C45.449 20 45.449 20 45.449 20C45.449 20 45.449 20 45.449 20C45.449 20 45.449 20 45.449 20C45.449 20 45.449 20 45.449 20C45.449 20 45.449 20 45.449 20C45.449 20 45.449 20 45.449 20C45.449 20 45.449 20 45.449 20C45.449 20 45.449 20 45.449 20C45.449 20 45.449 20 45.449 20C45.449 20 45.449 20 45.449 20C45.449 20 45.449 20 45.449 20C45.449 20 45.449 20 45.449 20C45.449 20 45.449 20 45.449 20C45.449 20 45.449 20 45.449 20C45.449 20 45.449 20 45.449 20C45.449 20 45.449 20 45.449 20C45.449 20 45.449 20 45.449 20C45.449 20 45.449 20 45.449 20C45.449 20 45.449 20 45.449 20C45.449 20 45.449 20 45.449 20C45.449 20 45.449 20 45.449 20C45.449 20 45.449 20 45.449 20C45.449 20 45.449 20 45.449 20C45.449 20 45.449 20 45.449 20C45.449 20 45.449 20 45.449 20C45.449 20 45.449 20 45.449 20C45.449 20 45.449 20 45.449 20C45.449 20 45.449 20 45.449 20C45.449 20 45.449 20 45.449 20C45.449 20 45.449 20 45.449 20C45.449 20 45.449 20 45.449 20C45.449 20 45.449 20 45.449 20C45.449 20 45.449 20 45.449 20C45.449 20 45.449 20 45.449 20C45.449 20 45.449 20 45.449 20C45.449 20 45.449 20 45.449 20C45.449 20 45.449 20 45.449 20C45.449 20 45.449 20 45.449 20C45.449 20 45.449 20 45.449 20C45.449 20 45.449 20 45.449 20C45.449 20 45.449 20 45.449 20C45.449 20 45.449 20 45.449 20C45.449 20 45.449 20 45.449 20C45.449 20 45.449 20 45.449 20C45.449 20 45.449 20 45.449 20C45.449 20 45.449 20 45.449 20C45.449 20 45.449 20 45.449 20C45.449 20 45.449 20 45.449 20C45.449 20 45.449 20 45.449 20C45.449 20 45.449 20 45.449 20C45.449 20 45.449 20 45.449 20C45.449 20 45.449 20 45.449 20C45.449 20 45.449 20 45.449 20C45.449 20 45.449 20 45.449 20C45.449 20 45.449 20 45.449 20C45.449 20 45.449 20 45.449 20C45.449 20 45.449 20 45.449 20C45.449 20 45.449 20 45.449 20C45.449 20 45.449 20 45.449 20C45.449 20 45.449 20 45.449 20C45.449 20 45.449 20 45.449 20C45.449 20 45.449 20 45.449 20C45.449 20 45.449 20 45.449 20C45.449 20 45.449 20 45.449 20C45.449 20 45.449 20 45.449 20C45.449 20 45.449 20 45.449 20C45.449 20 45.449 20 45.449 20C45.449 20 45.449 20 45.449 20C45.449 20 45.449 20 45.449 20C45.449 20 45.449 20 45.449 20C45.449 20 45.449 20 45.449 20C45.449 20 45.449 20 45.449 20C45.449 20 45.449 20 45.449 20C45.449 20 45.449 20 45.449 20C45.449 20 45.449 20 45.449 20C45.449 20 45.449 20 45.449 20C45.449 20 45.449 20 45.449 20C45.449 20 45.449 20 45.449 20C45.449 20 45.449 20 45.449 20C45.449 20 45.449 20 45.449 20C45.449 20 45.449 20 45.449 20C45.449 20 45.449 20 45.449 20C45.449 20 45.449 20 45.449 20C45.449 20 45.449 20 45.449 20C45.449 20 45.449 20 45.449 20C45.449 20 45.449 20 45.449 20C45.449 20 45.449 20 45.449 20C45.449 20 45.449 20 45.449 20C45.449 20 45.449 20 45.449 20C45.449 20 45.449 20 45.449 20C45.449 20 45.449 20 45.449 20C45.449 20 45.449 20 45.449 20C45.449 20 45.449 20 45.449 20C45.449 20 45.449 20 45.449 20C45.449 20 45.449 20 45.449 20C45.449 20 45.449 20 45.449 20C45.449 20 45.449 20 45.449 20C45.449 20 45.449 20 45.449 20C45.449 20 45.449 20 45.449 20C45.449 20 45.449 20 45.449 20C45.449 20 45.449 20 45.449 20C45.449 20 45.449 20 45.449 20C45.449 20 45.449 20 45.449 20C45.449 20 45.449 20 45.449 20C45.449 20 45.449 20 45.449 20C45.449 20 45.449 20 45.449 20C45.449 20 45.449 20 45.449 20C45.449 20 45.449 20 45.449 20C45.449 20 45.449 20 45.449 20C45.449 20 45.449 20 45.449 20C45.449 20 45.449 20 45.449 20C45.449 20 45.449 20 45.449 20C45.449 20 45.449 20 45.449 20C45.449 20 45.449 20 45.449 20C45.449 20 45.449 20 45.449 20C45.449 20 45.449 20 45.449 20C45.449 20 45.449 20 45.449 20C45.449 20 45.449 20 45.449 20C45.449 20 45.449 20 45.449 20C45.449 20 45.449 20 45.449 20C45.449 20 45.449 20 45.449 20C45.449 20 45.449 20 45.449 20C45.449 20 45.449 20 45.449 20C45.449 20 45.449 20 45.449 20C45.449 20 45.449 20 45.449 20C45.449 20 45.449 20 45.449 20C45.449 20 45.449 20 45.449 20C45.449 20 45.449 20 45.449 20C45.449 20 45.449 20 45.449 20C45.449 20 45.449 20 45.449 20C45.449 20 45.449 20 45.449 20C45.449 20 45.449 20 45.449 20C45.449 20 45.449 20 45.449 20C45.449 20 45.449 20 45.449 20C45.449 20 45.449 20 45.449 20C45.449 20 45.449 20 45.449 20C45.449 20 45.449 20 45.449 20C45.449 20 45.449 20 45.449 20C45.449 20 45.449 20 45.449 20C45.449 20 45.449 20 45.449 20C45.449 20 45.449 20 45.449 20C45.449 20 45.449 20 45.449 20C45.449 20 45.449 20 45.449 20C45.449 20 45.449 20 45.449 20C45.449 20 45.449 20 45.449 20C45.449 20 45.449 20 45.449 20C45.449 20 45.449 20 45.449 20C45.449 20 45.449 20 45.449 20C45.449 20 45.449 20 45.449 20C45.449 20 45.449 20 45.449 20C45.449 20 45.449 20 45.449 20C45.449 20 45.449 20 45.449 20C45.449 20 45.449 20 45.449 20C45.449 20 45.449 20 45.449 20C45.449 20 45.449 20 45.449 20C45.449 20 45.449 20 45.449 20C45.449 20 45.449 20 45.449 20C45.449 20 45.449 20 45.449 20C45.449 20 45.449 20 45.449 20C45.449 20 45.449 20 45.449 20C45.449 20 45.449 20 45.449 20C45.449 20 45.449 20 45.449 20C45.449 20 45.449 20 45.449 20C45.449 20 45.449 20 45.449 20C45.449 20 45.449 20 45.449 20C45.449 20 45.449 20 45.449 20C45.449 20 45.449 20 45.449 20C45.449 20 45.449 20 45.449 20C45.449 20 45.449 20 45.449 20C45.449 20 45.449 20 45.449 20C45.449 20 45.449 20 45.449 20C45.449 20 45.449 20 45.449 20C45.449 20 45.449 20 45.449 20C45.449 20 45.449 20 45.449 20C45.449 20 45.449 20 45.449 20C45.449 20 45.449 20 45.449 20H43.449C43.449 20 43.449 20 43.449 20C43.449 20 43.449 20 43.449 20C43.449 20 43.449 20 43.449 20C43.449 20 43.449 20 43.449 20C43.449 20 43.449 20 43.449 20C43.449 20 43.449 20 43.449 20C43.449 20 43.449 20 43.449 20C43.449 20 43.449 20 43.449 20C43.449 20 43.449 20 43.449 20C43.449 20 43.449 20 43.449 20C43.449 20 43.449 20 43.449 20C43.449 20 43.449 20 43.449 20C43.449 20 43.449 20 43.449 20C43.449 20 43.449 20 43.449 20C43.449 20 43.449 20 43.449 20C43.449 20 43.449 20 43.449 20C43.449 20 43.449 20 43.449 20C43.449 20 43.449 20 43.449 20C43.449 20 43.449 20 43.449 20C43.449 20 43.449 20 43.449 20C43.449 20 43.449 20 43.449 20C43.449 20 43.449 20 43.449 20C43.449 20 43.449 20 43.449 20C43.449 20 43.449 20 43.449 20C43.449 20 43.449 20 43.449 20C43.449 20 43.449 20 43.449 20C43.449 20 43.449 20 43.449 20C43.449 20 43.449 20 43.449 20C43.449 20 43.449 20 43.449 20C43.449 20 43.449 20 43.449 20C43.449 20 43.449 20 43.449 20C43.449 20 43.449 20 43.449 20C43.449 20 43.449 20 43.449 20C43.449 20 43.449 20 43.449 20C43.449 20 43.449 20 43.449 20C43.449 20 43.449 20 43.449 20C43.449 20 43.449 20 43.449 20C43.449 20 43.449 20 43.449 20C43.449 20 43.449 20 43.449 20C43.449 20 43.449 20 43.449 20C43.449 20 43.449 20 43.449 20C43.449 20 43.449 20 43.449 20C43.449 20 43.449 20 43.449 20C43.449 20 43.449 20 43.449 20C43.449 20 43.449 20 43.449 20C43.449 20 43.449 20 43.449 20C43.449 20 43.449 20 43.449 20C43.449 20 43.449 20 43.449 20C43.449 20 43.449 20 43.449 20C43.449 20 43.449 20 43.449 20C43.449 20 43.449 20 43.449 20C43.449 20 43.449 20 43.449 20C43.449 20 43.449 20 43.449 20C43.449 20 43.449 20 43.449 20C43.449 20 43.449 20 43.449 20C43.449 20 43.449 20 43.449 20C43.449 20 43.449 20 43.449 20C43.449 20 43.449 20 43.449 20C43.449 20 43.449 20 43.449 20C43.449 20 43.449 20 43.449 20C43.449 20 43.449 20 43.449 20C43.449 20 43.449 20 43.449 20C43.449 20 43.449 20 43.449 20C43.449 20 43.449 20 43.449 20C43.449 20 43.449 20 43.449 20C43.449 20 43.449 20 43.449 20C43.449 20 43.449 20 43.449 20C43.449 20 43.449 20 43.449 20C43.449 20 43.449 20 43.449 20C43.449 20 43.449 20 43.449 20C43.449 20 43.449 20 43.449 20C43.449 20 43.449 20 43.449 20C43.449 20 43.449 20 43.449 20C43.449 20 43.449 20 43.449 20C43.449 20 43.449 20 43.449 20C43.449 20 43.449 20 43.449 20C43.449 20 43.449 20 43.449 20C43.449 20 43.449 20 43.449 20C43.449 20 43.449 20 43.449 20C43.449 20 43.449 20 43.449 20C43.449 20 43.449 20 43.449 20C43.449 20 43.449 20 43.449 20C43.449 20 43.449 20 43.449 20C43.449 20 43.449 20 43.449 20C43.449 20 43.449 20 43.449 20C43.449 20 43.449 20 43.449 20C43.449 20 43.449 20 43.449 20C43.449 20 43.449 20 43.449 20C43.449 20 43.449 20 43.449 20C43.449 20 43.449 20 43.449 20C43.449 20 43.449 20 43.449 20C43.449 20 43.449 20 43.449 20C43.449 20 43.449 20 43.449 20C43.449 20 43.449 20 43.449 20C43.449 20 43.449 20 43.449 20C43.449 20 43.449 20 43.449 20C43.449 20 43.449 20 43.449 20C43.449 20 43.449 20 43.449 20C43.449 20 43.449 20 43.449 20C43.449 20 43.449 20 43.449 20C43.449 20 43.449 20 43.449 20C43.449 20 43.449 20 43.449 20C43.449 20 43.449 20 43.449 20C43.449 20 43.449 20 43.449 20C43.449 20 43.449 20 43.449 20C43.449 20 43.449 20 43.449 20C43.449 20 43.449 20 43.449 20C43.449 20 43.449 20 43.449 20C43.449 20 43.449 20 43.449 20C43.449 20 43.449 20 43.449 20C43.449 20 43.449 20 43.449 20C43.449 20 43.449 20 43.449 20C43.449 20 43.449 20 43.449 20C43.449 20 43.449 20 43.449 20C43.449 20 43.449 20 43.449 20C43.449 20 43.449 20 43.449 20C43.449 20 43.449 20 43.449 20C43.449 20 43.449 20 43.449 20C43.449 20 43.449 20 43.449 20C43.449 20 43.449 20 43.449 20C43.449 20 43.449 20 43.449 20C43.449 20 43.449 20 43.449 20C43.449 20 43.449 20 43.449 20C43.449 20 43.449 20 43.449 20C43.449 20 43.449 20 43.449 20C43.449 20 43.449 20 43.449 20C43.449 20 43.449 20 43.449 20C43.449 20 43.449 20 43.449 20C43.449 20 43.449 20 43.449 20C43.449 20 43.449 20 43.449 20C43.449 20 43.449 20 43.449 20C43.449 20 43.449 20 43.449 20C43.449 20 43.449 20 43.449 20C43.449 20 43.449 20 43.449 20C43.449 20 43.449 20 43.449 20C43.449 20 43.449 20 43.449 20C43.449 20 43.449 20 43.449 20C43.449 20 43.449 20 43.449 20C43.449 20 43.449 20 43.449 20C43.449 20 43.449 20 43.449 20C43.449 20 43.449 20 43.449 20C43.449 20 43.449 20 43.449 20C43.449 20 43.449 20 43.449 20C43.449 20 43.449 20 43.449 20C43.449 20 43.449 20 43.449 20C43.449 20 43.449 20 43.449 20C43.449 20 43.449 20 43.449 20C43.449 20 43.449 20 43.449 20C43.449 20 43.449 20 43.449 20C43.449 20 43.449 20 43.449 20C43.449 20 43.449 20 43.449 20C43.449 20 43.449 20 43.449 20C43.449 20 43.449 20 43.449 20C43.449 20 43.449 20 43.449 20C43.449 20 43.449 20 43.449 20C43.449 20 43.449 20 43.449 20C43.449 20 43.449 20 43.449 20C43.449 20 43.449 20 43.449 20C43.449 20 43.449 20 43.449 20C43.449 20 43.449 20 43.449 20C43.449 20 43.449 20 43.449 20C43.449 20 43.449 20 43.449 20C43.449 20 43.449 20 43.449 20C43.449 20 43.449 20 43.449 20C43.449 20 43.449 20 43.449 20C43.449 20 43.449 20 43.449 20C43.449 20 43.449 20 43.449 20C43.449 20 43.449 20 43.449 20C43.449 20 43.449 20 43.449 20C43.449 20 43.449 20 43.449 20C43.449 20 43.449 20 43.449 20C43.449 20 43.449 20 43.449 20C43.449 20 43.449 20 43.449 20C43.449 20 43.449 20 43.449 20C43.449 20 43.449 20 43.449 20C43.449 20 43.449 20 43.449 20C43.449 20 43.449 20 43.449 20C43.449 20 43.449 20 43.449 20C43.449 20 43.449 20 43.449 20C43.449 20 43.449 20 43.449 20C43.449 20 43.449 20 43.449 20C43.449 20 43.449 20 43.449 20C43.449 20 43.449 20 43.449 20C43.449 20 43.449 20 43.449 20C43.449 20 43.449 20 43.449 20C43.449 20 43.449 20 43.449 20C43.449 20 43.449 20 43.449 20C43.449 20 43.449 20 43.449 20C43.449 20 43.449 20 43.449 20C43.449 20 43.449 20 43.449 20C43.449 20 43.449 20 43.449 20C43.449 20 43.449 20 43.449 20C43.449 20 43.449 20 43.449 20C43.449 20 43.449 20 43.449 20C43.449 20 43.449 20 43.449 20C43.449 20 43.449 20 43.449 20C43.449 20 43.449 20 43.449 20C43.449 20 43.449 20 43.449 20C43.449 20 43.449 20 43.449 20C43.449 20 43.449 20 43.449 20C43.449 20 43.449 20 43.449 20C43.449 20 43.449 20 43.449 20C43.449 20 43.449 20 43.449 20C43.449 20 43.449 20 43.449 20C43.449 20 43.449 20 43.449 20C43.449 20 43.449 20 43.449 20C43.449 20 43.449 20 43.449 20C43.449 20 43.449 20 43.449 20C43.449 20 43.449 20 43.449 20C43.449 20 43.449 20 43.449 20C43.449 20 43.449 20 43.449 20C43.449 20 43.449 20 43.449 20C43.449 20 43.449 20 43.449 20C43.449 20 43.449 20 43.449 20C43.449 20 43.449 20 43.449 20C43.449 20 43.449 20 43.449 20C43.449 20 43.449 20 43.449 20C43.449 20 43.449 20 43.449 20C43.449 20 43.449 20 43.449 20C43.449 20 43.449 20 43.449 20C43.449 20 43.449 20 43.449 20C43.449 20 43.449 20 43.449 20C43.449 20 43.449 20 43.449 20C43.449 20 43.449 20 43.449 20C43.449 20 43.449 20 43.449 20C43.449 20 43.449 20 43.449 20C43.449 20 43.449 20 43.449 20C43.449 20 43.449 20 43.449 20C43.449 20 43.449 20 43.449 20C43.449 20 43.449 20 43.449 20C43.449 20 43.449 20 43.449 20C43.449 20 43.449 20 43.449 20C43.449 20 43.449 20 43.449 20C43.449 20 43.449 20 43.449 20C43.449 20 43.449 20 43.449 20C43.449 20 43.449 20 43.449 20C43.449 20 43.449 20 43.449 20C43.449 20 43.449 20 43.449 20C43.449 20 43.449 20 43.449 20C43.449 20 43.449 20 43.449 20C43.449 20 43.449 20 43.449 20C43.449 20 43.449 20 43.449 20C43.449 20 43.449 20 43.449 20C43.449 20 43.449 20 43.449 20C43.449 20 43.449 20 43.449 20C43.449 20 43.449 20 43.449 20C43.449 20 43.449 20 43.449 20C43.449 20 43.449 20 43.449 20C43.449 20 43.449 20 43.449 20C43.449 20 43.449 20 43.449 20C43.449 20 43.449 20 43.449 20C43.449 20 43.449 20 43.449 20C43.449 20 43.449 20 43.449 20C43.449 20 43.449 20 43.449 20C43.449 20 43.449 20 43.449 20C43.449 20 43.449 20 43.449 20C43.449 20 43.449 20 43.449 20C43.449 20 43.449 20 43.449 20C43.449 20 43.449 20 43.449 20C43.449 20 43.449 20 43.449 20C43.449 20 43.449 20 43.449 20C43.449 20 43.449 20 43.449 20C43.449 20 43.449 20 43.449 20C43.449 20 43.449 20 43.449 20C43.449 20 43.449 20 43.449 20C43.449 20 43.449 20 43.449 20C43.449 20 43.449 20 43.449 20C43.449 20 43.449 20 43.449 20C43.449 20 43.449 20 43.449 20C43.449 20 43.449 20 43.449 20C43.449 20 43.449 20 43.449 20C43.449 20 43.449 20 43.449 20C43.449 20 43.449 20 43.449 20C43.449 20 43.449 20 43.449 20C43.449 20 43.449 20 43.449 20C43.449 20 43.449 20 43.449 20C43.449 20 43.449 20 43.449 20C43.449 20 43.449 20 43.449 20C43.449 20 43.449 20 43.449 20C43.449 20 43.449 20 43.449 20C43.449 20 43.449 20 43.449 20C43.449 20 43.449 20 43.449 20C43.449 20 43.449 20 43.449 20C43.449 20 43.449 20 43.449 20C43.449 20 43.449 20 43.449 20C43.449 20 43.449 20 43.449 20C43.449 20 43.449 20 43.449 20C43.449 20 43.449 20 43.449 20C43.449 20 43.449 20 43.449 20C43.449 20 43.449 20 43.449 20C43.449 20 43.449 20 43.449 20C43.449 20 43.449 20 43.449 20C43.449 20 43.449 20 43.449 20C43.449 20 43.449 20 43.449 20C43.449 20 43.449 20 43.449 20C43.449 20 43.449 20 43.449 20C43.449 20 43.449 20 43.449 20C43.449 20 43.449 20 43.449 20C43.449 20 43.449 20 43.449 20C43.449 20 43.449 20 43.449 20C43.449 20 43.449 20 43.449 20C43.449 20 43.449 20 43.449 20C43.449 20 43.449 20 43.449 20C43.449 20 43.449 20 43.449 20C43.449 20 43.449 20 43.449 20C43.449 20 43.449 20 43.449 20C43.449 20 43.449 20 43.449 20C43.449 20 43.449 20 43.449 20C43.449 20 43.449 20 43.449 20C43.449 20 43.449 20 43.449 20C43.449 20 43.449 20 43.449 20C43.449 20 43.449 20 43.449 20C43.449 20 43.449 20 43.449 20C43.449 20 43.449 20 43.449 20C43.449 20 43.449 20 43.449 20C43.449 20 43.449 20 43.449 20C43.449 20 43.449 20 43.449 20C43.449 20 43.449 20 43.449 20C43.449 20 43.449 20 43.449 20C43.449 20 43.449 20 43.449 20C43.449 20 43.449 20 43.449 20C43.449 20 43.449 20 43.449 20C43.449 20 43.449 20 43.449 20C43.449 20 43.449 20 43.449 20C43.449 20 43.449 20 43.449 20C43.449 20 43.449 20 43.449 20C43.449 20 43.449 20 43.449 20C43.449 20 43.449 20 43.449 20C43.449 20 43.449 20 43.449 20C43.449 20 43.449 20 43.449 20C43.449 20 43.449 20 43.449 20C43.449 20 43.449 20 43.449 20C43.449 20 43.449 20 43.449 20C43.449 20 43.449 20 43.449 20C43.449 20 43.449 20 43.449 20C43.449 20 43.449 20 43.449 20C43.449 20 43.449 20 43.449 20C43.449 20 43.449 20 43.449 20C43.449 20 43.449 20 43.449 20C43.449 20 43.449 20 43.449 20C43.449 20 43.449 20 43.449 20C43.449 20 43.449 20 43.449 20C43.449 20 43.449 20 43.449 20C43.449 20 43.449 20 43.449 20C43.449 20 43.449 20 43.449 20C43.449 20 43.449 20 43.449 20C43.449 20 43.449 20 43.449 20C43.449 20 43.449 20 43.449 20C43.449 20 43.449 20 43.449 20C43.449 20 43.449 20 43.449 20C43.449 20 43.449 20 43.449 20C43.449 20 43.449 20 43.449 20C43.449 20 43.449 20 43.449 20C43.449 20 43.449 20 43.449 20C43.449 20 43.449 20 43.449 20C43.449 20 43.449 20 43.449 20C43.449 20 43.449 20 43.449 20C43.449 20 43.449 20 43.449 20C43.449 20 43.449 20 43.449 20C43.449 20 43.449 20 43.449 20C43.449 20 43.449 20 43.449 20C43.449 20 43.449 20 43.449 20C43.449 20 43.449 20 43.449 20C43.449 20 43.449 20 43.449 20C43.449 20 43.449 20 43.449 20C43.449 20 43.449 20 43.449 20C43.449 20 43.449 20 43.449 20C43.449 20 43.449 20 43.449 20C43.449 20 43.449 20 43.449 20C43.449 20 43.449 20 43.449 20C43.449 20 43.449 20 43.449 20C43.449 20 43.449 20 43.449 20C43.449 20 43.449 20 43.449 20C43.449 20 43.449 20 43.449 20C43.449 20 43.449 20 43.449 20C43.449 20 43.449 20 43.449 20C43.449 20 43.449 20 43.449 20C43.449 20 43.449 20 43.449 20C43.449 20 43.449 20 43.449 20C43.449 20 43.449 20 43.449 20C43.449 20 43.449 20 43.449 20C43.449 20 43.449 20 43.449 20C43.449 20 43.449 20 43.449 20C43.449 20 43.449 20 43.449 20C43.449 20 43.449 20 43.449 20C43.449 20 43.449 20 43.449 20C43.449 20 43.449 20 43.449 20C43.449 20 43.449 20 43.449 20C43.449 20 43.449 20 43.449 20C43.449 20 43.449 20 43.449 20C43.449 20 43.449 20 43.449 20C43.449 20 43.449 20 43.449 20C43.449 20 43.449 20 43.449 20C43.449 20 43.449 20 43.449 20C43.449 20 43.449 20 43.449 20C43.449 20 43.449 20 43.449 20C43.449 20 43.449 20 43.449 20C43.449 20 43.449 20 43.449 20C43.449 20 43.449 20 43.449 20C43.449 20 43.449 20 43.449 20C43.449 20 43.449 20 43.449 20C43.449 20 43.449 20 43.449 20C43.449 20 43.449 20 43.449 20C43.449 20 43.449 20 43.449 20C43.449 20 43.449 20 43.449 20C43.449 20 43.449 20 43.449 20C43.449 20 43.449 20 43.449 20C43.449 20 43.449 20 43.449 20C43.449 20 43.449 20 43.449 20C43.449 20 43.449 20 43.449 20C43.449 20 43.449 20 43.449 20C43.449 20 43.449 20 43.449 20C43.449 20 43.449 20 43.449 20C43.449 20 43.449 20 43.449 20C43.449 20 43.449 20 43.449 20C43.449 20 43.449 20 43.449 20C43.449 20 43.449 20 43.449 20C43.449 20 43.449 20 43.449 20C43.449 20 43.449 20 43.449 20C43.449 20 43.449 20 43.449 20C43.449 20 43.449 20 43.449 20C43.449 20 43.449 20 43.449 20C43.449 20 43.449 20 43.449 20C43.449 20 43.449 20 43.449 20C43.449 20 43.449 20 43.449 20C43.449 20 43.449 20 43.449 20C43.449 20 43.449 20 43.449 20C43.449 20 43.449 20 43.449 20C43.449 20 43.449 20 43.449 20C43.449 20 43.449 20 43.449 20C43.449 20 43.449 20 43.449 20C43.449 20 43.449 20 43.449 20C43.449 20 43.449 20 43.449 20C43.449 20 43.449 20 43.449 20C43.449 20 43.449 20 43.449 20C43.449 20 43.449 20 43.449 20C43.449 20 43.449 20 43.449 20C43.449 20 43.449 20 43.449 20C43.449 20 43.449 20 43.449 20C43.449 20 43.449 20 43.449 20C43.449 20 43.449 20 43.449 20C43.449 20 43.449 20 43.449 20C43.449 20 43.449 20 43.449 20C43.449 20 43.449 20 43.449 20C43.449 20 43.449 20 43.449 20C43.449 20 43.449 20 43.449 20C43.449 20 43.449 20 43.449 20C43.449 20 43.449 20 43.449 20C43.449 20 43.449 20 43.449 20C43.449 20 43.449 20 43.449 20C43.449 20 43.449 20 43.449 20C43.449 20 43.449 20 43.449 20C43.449 20 43.449 20 43.449 20C43.449 20 43.449 20 43.449 20C43.449 20 43.449 20 43.449 20C43.449 20 43.449 20 43.449 20C43.449 20 43.449 20 43.449 20C43.449 20 43.449 20 43.449 20C43.449 20 43.449 20 43.449 20C43.449 20 43.449 20 43.449 20C43.449 20 43.449 20 43.449 20C43.449 20 43.449 20 43.449 20C43.449 20 43.449 20 43.449 20C43.449 20 43.449 20 43.449 20C43.449 20 43.449 20 43.449 20C43.449 20 43.449 20 43.449 20C43.449 20 43.449 20 43.449 20C43.449 20 43.449 20 43.449 20C43.449 20 43.449 20 43.449 20C43.449 20 43.449 20 43.449 20C43.449 20 43.449 20 43.449 20C43.449 20 43.449 20 43.449 20C43.449 20 43.449 20 43.449 20C43.449 20 43.449 20 43.449 20C43.449 20 43.449 20 43.449 20C43.449 20 43.449 20 43.449 20C43.449 20 43.449 20 43.449 20C43.449 20 43.449 20 43.449 20C43.449 20 43.449 20 43.449 20C43.449 20 43.449 20 43.449 20C43.449 20 43.449 20 43.449 20C43.449 20 43.449 20 43.449 20C43.449 20 43.449 20 43.449 20C43.449 20 43.449 20 43.449 20C43.449 20 43.449 20 43.449 20C43.449 20 43.449 20 43.449 20C43.449 20 43.449 20 43.449 20C43.449 20 43.449 20 43.449 20C43.449 20 43.449 20 43.449 20C43.449 20 43.449 20 43.449 20C43.449 20 43.449 20 43.449 20C43.449 20 43.449 20 43.449 20C43.449 20 43.449 20 43.449 20C43.449 20 43.449 20 43.449 20C43.449 20 43.449 20 43.449 20C43.449 20 43.449 20 43.449 20C43.449 20 43.449 20 43.449 20C43.449 20 43.449 20 43.449 20C43.449 20 43.449 20 43.449 20C43.449 20 43.449 20 43.449 20C43.449 20 43.449 20 43.449 20C43.449 20 43.449 20 43.449 20C43.449 20 43.449 20 43.449 20C43.449 20 43.449 20 43.449 20C43.449 20 43.449 20 43.449 20C43.449 20 43.449 20 43.449 20C43.449 20 43.449 20 43.449 20C43.449 20 43.449 20 43.449 20C43.449 20 43.449 20 43.449 20C43.449 20 43.449 20 43.449 20C43.449 20 43.449 20 43.449 20C43.449 20 43.449 20 43.449 20H45.449ZM44.449 21H60V19H44.449V21ZM61 20C61 17.7675 60.5603 15.5569 59.7059 13.4944L57.8582 14.2597C58.612 16.0796 59 18.0302 59 20H61ZM59.7059 13.4944C58.8516 11.4318 57.5994 9.55778 56.0208 7.97918L54.6066 9.3934C55.9995 10.7863 57.1044 12.4399 57.8582 14.2597L59.7059 13.4944ZM56.0208 7.97918C54.4422 6.40059 52.5682 5.14838 50.5056 4.29405L49.7402 6.14181C51.5601 6.89563 53.2137 8.00052 54.6066 9.3934L56.0208 7.97918ZM50.5056 4.29405C48.4431 3.43972 46.2325 3 44 3V5C45.9698 5 47.9204 5.38799 49.7402 6.14181L50.5056 4.29405Z" fill="#9971EE" mask="url(#path-2-inside-1_131_11)"/>
<defs>
<clipPath id="clip0_131_11">
<rect width="24" height="24" fill="white" transform="translate(20 20)"/>
</clipPath>
</defs>
</svg>
